001  L_PREVIE V     C        00:00:00:01 00:00:29:09 01:00:50:00 01:01:19:08
* FROM CLIP NAME:  SC0020_SH010_L_C007_JH
002  L_PREVIE V     C        00:00:00:00 00:00:09:08 01:01:19:08 01:01:28:16
* FROM CLIP NAME:  SC0020_SH020_L_C007_JH
003  L_PREVIE V     C        00:00:00:00 00:00:15:10 01:01:28:16 01:01:44:02
* FROM CLIP NAME:  SC0020_SH030_L_C008_SI
004  L_PREVIE V     C        00:00:00:00 00:00:03:23 01:01:44:02 01:01:48:01
* FROM CLIP NAME:  SC0020_SH040_L_C006_JH
005  1960X817 V     C        00:00:00:00 00:00:04:13 01:01:48:01 01:01:52:14
* FROM CLIP NAME:  SC0030_SH010_COMP_V005
006  1960X817 V     C        00:00:00:00 00:00:03:14 01:01:52:14 01:01:56:04
* FROM CLIP NAME:  SC0030_SH020_COMP_V004
007  SC0030_S V     C        00:00:00:00 00:00:03:04 01:01:56:04 01:01:59:08
* FROM CLIP NAME:  SC0030_SH030_C002_L
008  SC0040_S V     C        00:00:00:00 00:00:06:17 01:01:59:08 01:02:06:01
* FROM CLIP NAME:  SC0040_SH010_C004_L
009  SC0040_S V     C        00:00:00:00 00:00:05:00 01:02:06:01 01:02:11:01
* FROM CLIP NAME:  SC0040_SH020_C001_L
010  SC0040_S V     C        00:00:00:00 00:00:01:07 01:02:11:01 01:02:12:08
* FROM CLIP NAME:  SC0040_SH030_C003_L
011  SC0040_S V     C        00:00:00:00 00:00:02:12 01:02:12:08 01:02:14:20
* FROM CLIP NAME:  SC0040_SH040_C003_L
012  SC0040_S V     C        00:00:00:00 00:00:01:20 01:02:14:20 01:02:16:16
* FROM CLIP NAME:  SC0040_SH070_C002_L
013  SC0040_S V     C        00:00:00:00 00:00:04:18 01:02:16:16 01:02:21:10
* FROM CLIP NAME:  SC0040_SH080_C001_L
014  1960X817 V     C        00:00:00:00 00:00:04:00 01:02:21:10 01:02:25:10
* FROM CLIP NAME:  SC0050_SH010_COMP_V002
015  1960X817 V     C        00:00:00:00 00:00:02:15 01:02:25:10 01:02:28:01
* FROM CLIP NAME:  SC0050_SH020_COMP_V006
016  1960X817 V     C        00:00:00:00 00:00:04:16 01:02:28:01 01:02:32:17
* FROM CLIP NAME:  SC0050_SH030_COMP_V004
017  1960X817 V     C        00:00:00:00 00:00:01:12 01:02:32:17 01:02:34:05
* FROM CLIP NAME:  SC0050_SH040_COMP_V004
018  1960X817 V     C        00:00:00:00 00:00:01:10 01:02:34:05 01:02:35:15
* FROM CLIP NAME:  SC0050_SH050_COMP_V001
019  1960X817 V     C        00:00:00:00 00:00:03:01 01:02:35:15 01:02:38:16
* FROM CLIP NAME:  SC0050_SH060_COMP_V006
020  1960X817 V     C        00:00:00:00 00:00:03:20 01:02:38:16 01:02:42:12
* FROM CLIP NAME:  SC0050_SH070_COMP_V001
