TITLE: ** V799 SAMPLE LOCK EDIT (3-23-07) 
FCM: NON-DROP FRAME 
001 BL V C 00:00:00:00 00:00:00:00 01:00:00:00 01:00:00:00 
001 L30107 V D 030 07:50:13:04 07:50:16:19 01:00:00:00 01:00:03:19 
* BLEND_DISSOLVE 
* TO CLIP NAME: 7-2B.NEW.01 
002 L30108 V C 08:00:47:09 08:00:49:12 01:00:03:19 01:00:05:23 
* FROM CLIP NAME: 7F-2B.NEW.01 
003 L30107 V C 07:50:13:04 07:50:16:07 01:00:05:23 01:00:08:26 
* FROM CLIP NAME: 7-2B.NEW.01 
004 L30107 V C 07:50:16:07 07:50:16:07 01:00:08:26 01:00:08:26 
004 L30107B V D 030 07:07:49:10 07:07:51:14 01:00:08:26 01:00:11:01 
* BLEND_DISSOLVE 
* FROM CLIP NAME: 7-2B.NEW.01 
* TO CLIP NAME: 7-6A.NEW.01 
005 L30107 V C 07:53:20:06 07:53:24:02 01:00:11:01 01:00:14:26 
* FROM CLIP NAME: 7A-2B.NEW.01 
006 L30107 V C 07:30:22:10 07:30:29:06 01:00:14:26 01:00:21:21 
* FROM CLIP NAME: 7Q-1A.NEW.01 
007 L30108 V C 08:14:29:07 08:14:30:12 01:00:21:21 01:00:22:28 
* FROM CLIP NAME: 7N-2B.NEW.01 
008 L30108 V C 08:14:30:12 08:14:30:12 01:00:22:28 01:00:22:28 
008 L30107 V D 060 07:18:27:15 07:18:37:10 01:00:22:28 01:00:32:21 
* BLEND_DISSOLVE 
* FROM CLIP NAME: 7N-2B.NEW.01 
* TO CLIP NAME: 7K-1A.NEW.01 
009 L30108 V C 08:04:10:09 08:04:12:10 01:00:32:21 01:00:34:23 
* FROM CLIP NAME: VFX7J-3.NEW.01 
010 L30107 V C 07:25:51:14 07:25:53:16 01:00:34:23 01:00:36:25 
* FROM CLIP NAME: 7N-2A.NEW.01 
011 L30107 V C 07:50:00:10 07:50:01:02 01:00:36:25 01:00:37:15 
* FROM CLIP NAME: 7-2B.NEW.01 
012 L30107 V C 07:28:16:18 07:28:17:10 01:00:37:15 01:00:38:05 
* FROM CLIP NAME: 7P-3A.NEW.01 
013 L30107 V C 07:50:13:18 07:50:14:10 01:00:38:05 01:00:38:25 
* FROM CLIP NAME: 7-2B.NEW.01 
014 L30107 V C 07:18:07:19 07:18:08:11 01:00:38:25 01:00:39:15 
* FROM CLIP NAME: 7K-1A.NEW.01 
015 L30107 V C 07:27:38:09 07:27:39:21 01:00:39:15 01:00:41:00 
* FROM CLIP NAME: 7P-2A.NEW.01 
016 L30107 V C 07:27:39:21 07:27:39:21 01:00:41:00 01:00:41:00 
016 BL V D 060 00:00:00:00 00:00:02:00 01:00:41:00 01:00:43:00 
* BLEND_DISSOLVE 
* FROM CLIP NAME: 7P-2A.NEW.01